<svg width="168" height="33" viewBox="0 0 168 33" fill="none" xmlns="http://www.w3.org/2000/svg">
<g clip-path="url(#clip0_432_1754)">
<path d="M38.5745 11.2775L43.0507 1.16455H44.2112L48.7608 11.2775H47.3835L46.1337 8.40815L46.7076 8.75248H40.5543L41.1856 8.40815L39.9358 11.2775H38.5745ZM43.6086 2.65663L41.3705 7.96499L41.0262 7.66211H46.2325L45.9583 7.96499L43.6628 2.65663H43.6086Z" fill="white"/>
<path d="M53.1924 14.4912C52.5612 14.4912 51.9841 14.4147 51.4581 14.2617C50.932 14.1086 50.457 13.8759 50.0361 13.5571L50.3804 12.5942C50.677 12.7951 50.9671 12.9577 51.254 13.082C51.541 13.2064 51.8406 13.2956 52.1499 13.3562C52.4592 13.4136 52.7844 13.4423 53.1191 13.4423C53.8269 13.4423 54.3561 13.2606 54.7132 12.8971C55.0671 12.5337 55.2456 12.0172 55.2456 11.3476V9.32314H55.3891C55.2361 9.86832 54.9236 10.3019 54.4486 10.6207C53.9767 10.9427 53.4188 11.1022 52.778 11.1022C52.1276 11.1022 51.5601 10.9555 51.0787 10.6654C50.5972 10.3721 50.221 9.95759 49.9532 9.41559C49.6854 8.8736 49.5515 8.24234 49.5515 7.51543C49.5515 6.77895 49.6854 6.1445 49.9532 5.60888C50.221 5.07326 50.5972 4.6588 51.0787 4.36867C51.5601 4.07854 52.1276 3.93188 52.778 3.93188C53.4188 3.93188 53.9736 4.09129 54.4422 4.40693C54.9109 4.72256 55.2233 5.15934 55.3732 5.7109L55.2456 5.58337L55.3732 4.0626H56.6357C56.607 4.34954 56.5815 4.63648 56.556 4.92342C56.5305 5.21035 56.5209 5.4941 56.5209 5.76829V11.1914C56.5209 12.2627 56.2404 13.0788 55.6824 13.6432C55.1245 14.2075 54.2924 14.4912 53.1924 14.4912ZM53.0649 10.0724C53.7249 10.0724 54.2509 9.84919 54.6431 9.39965C55.0352 8.95012 55.2329 8.32204 55.2329 7.51861C55.2329 6.70562 55.0352 6.08073 54.6431 5.64076C54.2509 5.20079 53.7249 4.9808 53.0649 4.9808C52.3954 4.9808 51.863 5.20079 51.4644 5.64076C51.0659 6.08073 50.8682 6.70881 50.8682 7.51861C50.8682 8.32204 51.0659 8.95012 51.4644 9.39965C51.8598 9.84919 52.3954 10.0724 53.0649 10.0724Z" fill="white"/>
<path d="M58.6858 11.2775V5.82569C58.6858 5.53875 58.6794 5.24544 58.6634 4.94256C58.6507 4.63968 58.622 4.34637 58.5837 4.05943H59.8463L60.0057 5.86714L59.7889 5.87989C59.8845 5.43992 60.0503 5.07328 60.2831 4.78315C60.519 4.49302 60.7995 4.27623 61.1311 4.13594C61.4627 3.99885 61.8038 3.92871 62.1577 3.92871C62.3107 3.92871 62.4383 3.93509 62.5435 3.94146C62.6487 3.95103 62.7539 3.97653 62.8591 4.01479L62.8304 5.1753C62.687 5.11791 62.5562 5.08284 62.4351 5.0669C62.3139 5.05096 62.1705 5.04458 61.9983 5.04458C61.5775 5.04458 61.2172 5.14023 60.9143 5.33152C60.6114 5.52281 60.3819 5.77468 60.2257 6.09031C60.0694 6.40595 59.9897 6.74708 59.9897 7.11054V11.2711H58.6858V11.2775Z" fill="white"/>
<path d="M66.9527 11.4082C66.2449 11.4082 65.6328 11.2584 65.1163 10.9555C64.5998 10.6558 64.1981 10.2254 63.9111 9.66427C63.6242 9.10315 63.4807 8.43682 63.4807 7.66208C63.4807 6.89691 63.6242 6.23377 63.9111 5.67583C64.1981 5.11471 64.5998 4.6843 65.1163 4.38461C65.6328 4.08173 66.2449 3.93188 66.9527 3.93188C67.6604 3.93188 68.2758 4.08173 68.7954 4.38461C69.3151 4.68749 69.7168 5.11471 70.0006 5.67583C70.2812 6.23377 70.4246 6.89691 70.4246 7.66208C70.4246 8.43682 70.2843 9.10315 70.0006 9.66427C69.7168 10.2222 69.3151 10.6558 68.7954 10.9555C68.2726 11.2552 67.6604 11.4082 66.9527 11.4082ZM66.9527 10.3752C67.6031 10.3752 68.1227 10.1457 68.5181 9.68659C68.9102 9.22749 69.1047 8.55478 69.1047 7.66527C69.1047 6.77576 68.907 6.10624 68.5181 5.6567C68.1259 5.20717 67.6031 4.9808 66.9527 4.9808C66.2927 4.9808 65.7698 5.20717 65.3809 5.6567C64.9919 6.10624 64.8006 6.77576 64.8006 7.66527C64.8006 8.55478 64.9951 9.22749 65.3809 9.68659C65.7667 10.1457 66.2927 10.3752 66.9527 10.3752Z" fill="white"/>
<path d="M76.1028 11.2775V1.16455H77.4386V11.2775H76.1028Z" fill="white"/>
<path d="M79.7469 11.2775V5.76829C79.7469 5.49092 79.7373 5.21035 79.7182 4.92342C79.699 4.63648 79.6703 4.34954 79.6321 4.0626H80.8946L81.0381 5.61207H80.8659C81.0859 5.06689 81.4238 4.64923 81.8861 4.36229C82.3452 4.07535 82.8809 3.93188 83.493 3.93188C84.3442 3.93188 84.9851 4.16462 85.4155 4.62691C85.8459 5.09239 86.0627 5.80974 86.0627 6.78533V11.2775H84.7587V6.85866C84.7587 6.1987 84.628 5.72366 84.3729 5.43034C84.1147 5.14021 83.713 4.99356 83.1678 4.99356C82.5174 4.99356 82.0041 5.19122 81.6247 5.58337C81.2453 5.97552 81.0572 6.50477 81.0572 7.17429V11.2775H79.7469Z" fill="white"/>
<path d="M90.9536 11.4083C90.3223 11.4083 89.7676 11.2617 89.2893 10.9651C88.8111 10.6686 88.4381 10.2382 88.1703 9.67393C87.9025 9.10961 87.7686 8.44009 87.7686 7.66536C87.7686 6.89062 87.9025 6.22429 88.1703 5.66317C88.4381 5.10204 88.8111 4.67482 89.2893 4.37832C89.7676 4.08182 90.3223 3.93197 90.9536 3.93197C91.5848 3.93197 92.1364 4.09138 92.6114 4.40701C93.0865 4.72265 93.4021 5.15943 93.5647 5.71099H93.3925V0.718262H94.6965V11.2776H93.4053V9.59741H93.5647C93.4117 10.1617 93.0992 10.6049 92.6242 10.9237C92.1523 11.2457 91.5944 11.4083 90.9536 11.4083ZM91.2533 10.3753C91.9037 10.3753 92.4265 10.1458 92.825 9.68668C93.2204 9.22758 93.4212 8.55487 93.4212 7.66536C93.4212 6.77585 93.2236 6.10633 92.825 5.65679C92.4265 5.20725 91.9037 4.98089 91.2533 4.98089C90.6029 4.98089 90.08 5.20725 89.6815 5.65679C89.283 6.10633 89.0853 6.77585 89.0853 7.66536C89.0853 8.55487 89.283 9.22758 89.6815 9.68668C90.08 10.1458 90.6029 10.3753 91.2533 10.3753Z" fill="white"/>
<path d="M99.4468 11.4084C98.5765 11.4084 97.9229 11.1756 97.4893 10.7038C97.0525 10.2351 96.8357 9.51457 96.8357 8.53898V4.06274H98.1397V8.51029C98.1397 9.14155 98.2704 9.60703 98.5254 9.90353C98.7805 10.2 99.1854 10.3467 99.7306 10.3467C100.324 10.3467 100.805 10.149 101.172 9.7505C101.538 9.35516 101.723 8.82592 101.723 8.16596V4.06274H103.027V11.2776H101.765V9.68355H101.95C101.749 10.2287 101.427 10.6528 100.99 10.9525C100.556 11.2553 100.04 11.4084 99.4468 11.4084Z" fill="white"/>
<path d="M107.666 11.4082C107.083 11.4082 106.541 11.3317 106.037 11.1787C105.536 11.0256 105.122 10.8056 104.797 10.5187L105.214 9.61325C105.568 9.88106 105.957 10.0851 106.384 10.2222C106.808 10.3625 107.248 10.4294 107.698 10.4294C108.243 10.4294 108.658 10.3306 108.938 10.1297C109.219 9.92888 109.362 9.66107 109.362 9.32631C109.362 9.0585 109.27 8.84489 109.088 8.68229C108.906 8.5197 108.619 8.40173 108.227 8.32521L106.863 8.05103C106.25 7.90756 105.788 7.67482 105.479 7.356C105.17 7.03718 105.013 6.62271 105.013 6.11579C105.013 5.69495 105.128 5.31874 105.358 4.99035C105.587 4.65878 105.916 4.40054 106.34 4.21562C106.764 4.02752 107.264 3.93506 107.838 3.93506C108.364 3.93506 108.855 4.01158 109.308 4.16461C109.761 4.31764 110.137 4.54401 110.433 4.84051L110.003 5.71408C109.706 5.45583 109.375 5.25816 109.005 5.11788C108.635 4.98079 108.262 4.91065 107.88 4.91065C107.325 4.91065 106.914 5.01905 106.646 5.23266C106.378 5.44946 106.244 5.72683 106.244 6.07115C106.244 6.3294 106.324 6.54301 106.486 6.7088C106.649 6.87458 106.91 7.00211 107.274 7.08819L108.638 7.36238C109.279 7.49628 109.761 7.71627 110.086 8.02234C110.411 8.3284 110.574 8.7333 110.574 9.24023C110.574 9.68977 110.453 10.0755 110.207 10.4007C109.962 10.7259 109.624 10.9746 109.187 11.1468C108.76 11.3221 108.249 11.4082 107.666 11.4082Z" fill="white"/>
<path d="M114.983 11.4082C114.227 11.4082 113.657 11.201 113.268 10.7833C112.879 10.3657 112.687 9.73761 112.687 8.89593V5.06689H111.281V4.06261H112.687V2.12418L113.991 1.76392V4.05942H116.029V5.06371H113.991V8.78115C113.991 9.3359 114.09 9.73124 114.285 9.96398C114.482 10.1967 114.766 10.3147 115.139 10.3147C115.331 10.3147 115.496 10.2987 115.633 10.2637C115.77 10.2318 115.898 10.1903 116.013 10.1425V11.2201C115.869 11.2775 115.704 11.3222 115.519 11.3572C115.334 11.3923 115.155 11.4082 114.983 11.4082Z" fill="white"/>
<path d="M117.381 11.2775V5.82569C117.381 5.53875 117.374 5.24544 117.358 4.94256C117.346 4.63968 117.317 4.34637 117.279 4.05943H118.541L118.701 5.86714L118.484 5.87989C118.579 5.43992 118.745 5.07328 118.978 4.78315C119.214 4.49302 119.494 4.27623 119.826 4.13594C120.158 3.99885 120.499 3.92871 120.853 3.92871C121.006 3.92871 121.133 3.93509 121.238 3.94146C121.344 3.95103 121.449 3.97653 121.554 4.01479L121.525 5.1753C121.382 5.11791 121.251 5.08284 121.13 5.0669C121.009 5.05096 120.865 5.04458 120.693 5.04458C120.272 5.04458 119.912 5.14023 119.609 5.33152C119.306 5.52281 119.077 5.77468 118.92 6.09031C118.764 6.40595 118.685 6.74708 118.685 7.11054V11.2711H117.381V11.2775Z" fill="white"/>
<path d="M122.587 2.48461V1.07861H124.136V2.48461H122.587ZM122.702 11.2777V4.06277H124.009V11.2777H122.702Z" fill="white"/>
<path d="M128.944 11.4082C128.313 11.4082 127.758 11.2616 127.28 10.9651C126.802 10.6686 126.429 10.2382 126.161 9.67384C125.893 9.10953 125.759 8.44 125.759 7.66527C125.759 6.89054 125.893 6.2242 126.161 5.66308C126.429 5.10196 126.802 4.67474 127.28 4.37823C127.758 4.08173 128.313 3.93188 128.944 3.93188C129.585 3.93188 130.143 4.09129 130.615 4.4133C131.087 4.73531 131.402 5.1721 131.555 5.72684H131.383L131.542 4.0626H132.805C132.776 4.34954 132.751 4.63648 132.725 4.92342C132.7 5.21035 132.69 5.4941 132.69 5.76829V11.2775H131.386V9.62602H131.546C131.393 10.1712 131.08 10.6048 130.605 10.9236C130.127 11.2456 129.575 11.4082 128.944 11.4082ZM129.244 10.3752C129.894 10.3752 130.414 10.1457 130.809 9.68659C131.201 9.22749 131.396 8.55478 131.396 7.66527C131.396 6.77576 131.198 6.10624 130.809 5.6567C130.417 5.20717 129.894 4.9808 129.244 4.9808C128.593 4.9808 128.07 5.20717 127.672 5.6567C127.273 6.10624 127.076 6.77576 127.076 7.66527C127.076 8.55478 127.27 9.22749 127.662 9.68659C128.058 10.1457 128.584 10.3752 129.244 10.3752Z" fill="white"/>
<path d="M45.3176 32.5524C44.1252 32.5524 42.9934 32.4089 41.9189 32.122C40.8445 31.835 39.9454 31.4461 39.2153 30.9551L40.3089 27.9454C40.7712 28.2387 41.2781 28.4938 41.8233 28.7042C42.3717 28.9146 42.9423 29.0804 43.5385 29.1984C44.1347 29.3163 44.7405 29.3769 45.359 29.3769C46.2836 29.3769 46.9276 29.259 47.2847 29.0198C47.6418 28.7807 47.8203 28.4747 47.8203 28.0953C47.8203 27.7573 47.7023 27.4959 47.4632 27.3046C47.2241 27.1165 46.7746 26.9507 46.1178 26.8104L43.5513 26.2844C42.1899 26.0038 41.1729 25.516 40.5002 24.821C39.8275 24.126 39.4895 23.2173 39.4895 22.0951C39.4895 21.1131 39.7541 20.2618 40.277 19.5381C40.8031 18.8144 41.5427 18.2533 42.496 17.8548C43.4493 17.4562 44.5651 17.2554 45.8404 17.2554C46.8925 17.2554 47.8809 17.3988 48.8086 17.6858C49.7332 17.9727 50.492 18.3712 51.0818 18.875L49.9883 21.6933C49.4271 21.2853 48.7959 20.976 48.0945 20.756C47.3931 20.5392 46.6152 20.4308 45.7575 20.4308C44.9445 20.4308 44.3292 20.5552 43.9147 20.8007C43.5003 21.0461 43.293 21.3937 43.293 21.8432C43.293 22.1525 43.4142 22.4139 43.6629 22.6339C43.9084 22.8507 44.3611 23.0292 45.021 23.1695L47.5461 23.6732C48.9075 23.941 49.9277 24.4161 50.6068 25.1047C51.2859 25.7934 51.627 26.6893 51.627 27.7988C51.627 28.752 51.3624 29.5873 50.8363 30.3047C50.3103 31.0188 49.577 31.5736 48.6365 31.9657C47.7023 32.3547 46.5928 32.5524 45.3176 32.5524Z" fill="white"/>
<path d="M57.8566 32.5525C56.932 32.5525 56.1158 32.3325 55.4144 31.8894C54.713 31.4462 54.1615 30.8054 53.763 29.9637C53.3644 29.122 53.1636 28.1273 53.1636 26.9763C53.1636 25.8126 53.3644 24.8115 53.763 23.9762C54.1615 23.1409 54.713 22.5033 55.4144 22.0601C56.1158 21.6201 56.9288 21.397 57.8566 21.397C58.6855 21.397 59.4316 21.5946 60.0979 21.9868C60.7643 22.3789 61.2042 22.8922 61.4115 23.5235H61.201L61.4338 21.6297H65.0333C64.9918 22.1079 64.9535 22.5926 64.9185 23.0803C64.8834 23.5713 64.8643 24.0559 64.8643 24.531V32.3166H61.1596L61.1181 30.5057H61.37C61.1596 31.1242 60.7196 31.6184 60.0565 31.9882C59.3933 32.358 58.6568 32.5525 57.8566 32.5525ZM59.0554 29.7756C59.6866 29.7756 60.1999 29.5556 60.5921 29.1124C60.9842 28.6725 61.1819 27.9583 61.1819 26.9763C61.1819 25.9944 60.9842 25.2834 60.5921 24.8402C60.1999 24.3971 59.6866 24.1771 59.0554 24.1771C58.4241 24.1771 57.9108 24.3971 57.5187 24.8402C57.1265 25.2802 56.9288 25.9944 56.9288 26.9763C56.9288 27.9583 57.1201 28.6693 57.5091 29.1124C57.8949 29.5524 58.4114 29.7756 59.0554 29.7756Z" fill="white"/>
<path d="M67.1983 32.3197V24.5341C67.1983 24.0559 67.1855 23.5745 67.1568 23.0835C67.1281 22.5925 67.0867 22.1079 67.0293 21.6329H70.6479L70.8583 23.4852H70.6256C70.9763 22.8125 71.4736 22.296 72.1209 21.9389C72.7649 21.5819 73.495 21.4033 74.308 21.4033C75.5577 21.4033 76.4919 21.77 77.1168 22.5064C77.7417 23.2429 78.0541 24.3907 78.0541 25.9465V32.3229H74.3112V26.1123C74.3112 25.4268 74.1932 24.9454 73.9541 24.6712C73.715 24.397 73.3706 24.26 72.9243 24.26C72.3345 24.26 71.8594 24.4544 71.4928 24.8402C71.1293 25.226 70.9444 25.7329 70.9444 26.3674V32.3229H67.1983V32.3197Z" fill="white"/>
<path d="M84.7683 32.3198L91.7122 17.4851H94.8685L101.854 32.3198H97.9611L96.1725 28.2389L97.6678 29.3133H88.9576L90.4306 28.2389L88.6643 32.3198H84.7683ZM93.2712 21.4831L90.8099 27.3526L90.2201 26.3643H96.3861L95.8601 27.3526L93.3765 21.4831H93.2712Z" fill="white"/>
<path d="M102.571 32.3197V24.5341C102.571 24.0559 102.559 23.5745 102.53 23.0835C102.501 22.5925 102.46 22.1079 102.402 21.6329H106.021L106.231 23.4852H105.999C106.349 22.8125 106.847 22.296 107.494 21.9389C108.138 21.5819 108.868 21.4033 109.681 21.4033C110.931 21.4033 111.865 21.77 112.49 22.5064C113.115 23.2429 113.427 24.3907 113.427 25.9465V32.3229H109.681V26.1123C109.681 25.4268 109.56 24.9454 109.324 24.6712C109.085 24.397 108.74 24.26 108.294 24.26C107.704 24.26 107.229 24.4544 106.863 24.8402C106.496 25.226 106.314 25.7329 106.314 26.3674V32.3229H102.571V32.3197Z" fill="white"/>
<path d="M121.152 32.5524C119.638 32.5524 118.496 32.1921 117.734 31.4684C116.969 30.7447 116.587 29.648 116.587 28.175V24.3874H114.588V21.6296H116.587V19.1046L120.333 18.2214V21.6296H122.941V24.3874H120.333V28.0284C120.333 28.6469 120.473 29.055 120.754 29.259C121.034 29.463 121.372 29.5651 121.764 29.5651C122.003 29.5651 122.211 29.5491 122.386 29.5141C122.561 29.479 122.746 29.4248 122.944 29.3546V32.2368C122.635 32.3611 122.329 32.4472 122.029 32.4886C121.723 32.5301 121.433 32.5524 121.152 32.5524Z" fill="white"/>
<path d="M129.63 32.5525C128.437 32.5525 127.407 32.3293 126.537 31.8798C125.667 31.4302 124.994 30.7894 124.516 29.9541C124.037 29.1188 123.802 28.1273 123.802 26.9763C123.802 25.8126 124.041 24.8147 124.516 23.989C124.994 23.16 125.667 22.5224 126.537 22.0729C127.407 21.6233 128.437 21.4001 129.63 21.4001C130.809 21.4001 131.833 21.6233 132.703 22.0729C133.573 22.5224 134.246 23.1632 134.724 23.9985C135.203 24.8338 135.438 25.8254 135.438 26.9763C135.438 28.1113 135.199 29.1028 134.724 29.9413C134.246 30.783 133.573 31.427 132.703 31.8766C131.833 32.3261 130.809 32.5525 129.63 32.5525ZM129.63 29.7756C130.248 29.7756 130.739 29.5556 131.102 29.1124C131.466 28.6724 131.651 27.9583 131.651 26.9763C131.651 25.9943 131.469 25.2834 131.102 24.8402C130.739 24.3971 130.248 24.1771 129.63 24.1771C128.998 24.1771 128.501 24.3971 128.134 24.8402C127.771 25.2802 127.586 25.9943 127.586 26.9763C127.586 27.9583 127.768 28.6693 128.134 29.1124C128.501 29.5524 128.998 29.7756 129.63 29.7756Z" fill="white"/>
<path d="M137.269 32.3197V24.5341C137.269 24.0559 137.256 23.5745 137.227 23.0835C137.198 22.5925 137.157 22.1079 137.1 21.6329H140.718L140.929 23.4852H140.696C141.047 22.8125 141.544 22.296 142.191 21.9389C142.835 21.5819 143.565 21.4033 144.378 21.4033C145.628 21.4033 146.562 21.77 147.187 22.5064C147.812 23.2429 148.124 24.3907 148.124 25.9465V32.3229H144.378V26.1123C144.378 25.4268 144.26 24.9454 144.021 24.6712C143.782 24.397 143.438 24.26 142.991 24.26C142.402 24.26 141.927 24.4544 141.56 24.8402C141.196 25.226 141.012 25.7329 141.012 26.3674V32.3229H137.269V32.3197Z" fill="white"/>
<path d="M150.292 20.1153V16.7485H154.227V20.1153H150.292ZM150.378 32.3197V21.6297H154.125V32.3197H150.378Z" fill="white"/>
<path d="M161.783 32.5525C160.59 32.5525 159.56 32.3293 158.69 31.8798C157.82 31.4302 157.147 30.7894 156.669 29.9541C156.191 29.1188 155.955 28.1273 155.955 26.9763C155.955 25.8126 156.194 24.8147 156.669 23.989C157.147 23.16 157.82 22.5224 158.69 22.0729C159.56 21.6233 160.59 21.4001 161.783 21.4001C162.962 21.4001 163.986 21.6233 164.856 22.0729C165.726 22.5224 166.399 23.1632 166.877 23.9985C167.356 24.8338 167.592 25.8254 167.592 26.9763C167.592 28.1113 167.352 29.1028 166.877 29.9413C166.399 30.783 165.726 31.427 164.856 31.8766C163.986 32.3261 162.962 32.5525 161.783 32.5525ZM161.783 29.7756C162.401 29.7756 162.889 29.5556 163.256 29.1124C163.619 28.6724 163.804 27.9583 163.804 26.9763C163.804 25.9943 163.622 25.2834 163.256 24.8402C162.889 24.3971 162.401 24.1771 161.783 24.1771C161.151 24.1771 160.654 24.3971 160.287 24.8402C159.924 25.2802 159.739 25.9943 159.739 26.9763C159.739 27.9583 159.921 28.6693 160.287 29.1124C160.654 29.5524 161.151 29.7756 161.783 29.7756Z" fill="white"/>
<path d="M21.5526 14.96C21.068 14.96 20.5802 14.9313 20.0924 14.8675L18.9797 14.7272L18.7342 13.6337C18.6067 13.0598 17.5833 7.89809 21.3836 3.90646C24.0745 1.0849 28.1171 -0.0309691 31.9429 0.998821L33.062 1.29851L33.1194 2.45583C33.1959 3.97341 33.0206 6.28486 31.7708 8.67601C31.0152 10.1171 29.2489 12.7346 25.8917 14.1119C24.5272 14.673 23.0479 14.96 21.5526 14.96ZM29.1054 3.81082C27.0714 3.81082 25.1106 4.62062 23.6951 6.10951C21.8746 8.02243 21.6514 10.3849 21.712 11.7718C22.576 11.7558 23.609 11.606 24.6866 11.166C27.1096 10.1745 28.3977 8.25836 28.9492 7.20306C29.5741 6.00749 29.8324 4.83742 29.9152 3.85545C29.6443 3.82357 29.3764 3.81082 29.1054 3.81082Z" fill="white"/>
<path d="M12.1156 15.03C10.8658 15.03 9.33546 14.8324 7.7286 14.1756C4.33635 12.7855 2.55096 10.1361 1.78898 8.68231C0.523264 6.26566 0.347913 3.9287 0.42443 2.39199L0.481818 1.23467L1.60088 0.93498C5.46498 -0.104374 9.55544 1.02425 12.2718 3.87769C16.1104 7.91396 15.0806 13.1267 14.9499 13.7069L14.7044 14.8005L13.5917 14.9408C13.1645 14.9918 12.6671 15.03 12.1156 15.03ZM3.62857 3.78523C3.71147 4.78314 3.9729 5.98191 4.61054 7.1998C5.17166 8.27104 6.47883 10.2158 8.93693 11.2233C10.0401 11.676 11.0922 11.8259 11.9753 11.8386C12.0391 10.4326 11.8191 8.02236 9.96035 6.07118C8.33117 4.35592 5.98784 3.53018 3.62857 3.78523Z" fill="white"/>
<path d="M4.51165 32.546C3.56794 32.546 2.61467 32.4216 1.67415 32.1698L0.555092 31.8701L0.497704 30.7128C0.421187 29.1952 0.596538 26.8837 1.84631 24.4926C2.60192 23.0515 4.36818 20.434 7.72536 19.0567C10.0177 18.1194 12.1442 18.1289 13.5247 18.3011L14.6374 18.4414L14.8829 19.5349C15.0104 20.1088 16.0338 25.2673 12.2335 29.2621C10.2026 31.3855 7.40654 32.546 4.51165 32.546ZM3.70185 29.3131C6.0133 29.5586 8.31837 28.7456 9.92203 27.0591C11.7425 25.1462 11.9657 22.7837 11.9051 21.3968C11.0411 21.4128 10.0081 21.5626 8.9305 22.0026C6.51066 22.9941 5.21943 24.9102 4.66787 25.9655C4.04299 27.1611 3.78474 28.3312 3.70185 29.3131Z" fill="white"/>
<path d="M29.1054 32.546C26.2105 32.546 23.4145 31.3887 21.3868 29.259C17.5865 25.2673 18.6099 20.1056 18.7374 19.5317L18.9829 18.4382L20.0956 18.2979C21.4761 18.1257 23.6026 18.1162 25.8949 19.0535C29.2521 20.4276 31.0183 23.0483 31.774 24.4894C33.0269 26.8806 33.1991 29.192 33.1226 30.7096L33.0652 31.8669L31.9461 32.1666C31.0024 32.4216 30.0491 32.5428 29.1054 32.546ZM21.712 21.3968C21.6514 22.7837 21.8746 25.1462 23.695 27.0591C25.2987 28.7457 27.6006 29.5586 29.9152 29.3132C29.8323 28.3312 29.5741 27.1611 28.9492 25.9655C28.3976 24.9102 27.1064 22.9941 24.6866 22.0026C23.609 21.5626 22.576 21.4128 21.712 21.3968Z" fill="white"/>
</g>
<defs>
<clipPath id="clip0_432_1754">
<rect width="167.183" height="32" fill="white" transform="translate(0.408447 0.55249)"/>
</clipPath>
</defs>
</svg>
