<svg width="16" height="16" viewBox="0 0 16 16" fill="none" xmlns="http://www.w3.org/2000/svg">
<path d="M14.5374 3.91406C14.0562 4.13281 13.5374 4.27656 12.9999 4.34531C13.5499 4.01406 13.9749 3.48906 14.1749 2.85781C13.6562 3.17031 13.0812 3.38906 12.4749 3.51406C11.9812 2.97656 11.2874 2.66406 10.4999 2.66406C9.03115 2.66406 7.83115 3.86406 7.83115 5.34531C7.83115 5.55781 7.85615 5.76406 7.8999 5.95781C5.6749 5.84531 3.69365 4.77656 2.3749 3.15781C2.14365 3.55156 2.0124 4.01406 2.0124 4.50156C2.0124 5.43281 2.48115 6.25781 3.20615 6.72656C2.7624 6.72656 2.3499 6.60156 1.9874 6.41406V6.43281C1.9874 7.73281 2.9124 8.82031 4.1374 9.06406C3.74411 9.17169 3.33121 9.18667 2.93115 9.10781C3.10091 9.64061 3.43336 10.1068 3.88179 10.4409C4.33021 10.775 4.87206 10.9601 5.43115 10.9703C4.48342 11.7206 3.30865 12.1261 2.0999 12.1203C1.8874 12.1203 1.6749 12.1078 1.4624 12.0828C2.6499 12.8453 4.0624 13.2891 5.5749 13.2891C10.4999 13.2891 13.2062 9.20156 13.2062 5.65781C13.2062 5.53906 13.2062 5.42656 13.1999 5.30781C13.7249 4.93281 14.1749 4.45781 14.5374 3.91406Z" fill="#101935"/>
</svg>
