<svg width="16" height="16" viewBox="0 0 16 16" fill="none" xmlns="http://www.w3.org/2000/svg">
<path d="M2.415 4.85781C2.93501 3.82234 3.73273 2.95188 4.71902 2.34373C5.70531 1.73558 6.84129 1.4137 8 1.41406C9.68438 1.41406 11.0994 2.03281 12.1813 3.04219L10.3894 4.83469C9.74125 4.21531 8.9175 3.89969 8 3.89969C6.37188 3.89969 4.99375 4.99969 4.50313 6.47656C4.37813 6.85156 4.30688 7.25156 4.30688 7.66406C4.30688 8.07656 4.37813 8.47656 4.50313 8.85156C4.99438 10.3291 6.37188 11.4284 8 11.4284C8.84063 11.4284 9.55625 11.2066 10.1163 10.8316C10.4409 10.6178 10.7188 10.3405 10.9333 10.0162C11.1477 9.69204 11.2941 9.32772 11.3638 8.94531H8V6.52781H13.8862C13.96 6.93656 14 7.36281 14 7.80594C14 9.70969 13.3188 11.3122 12.1362 12.3997C11.1025 13.3547 9.6875 13.9141 8 13.9141C7.17915 13.9144 6.36627 13.753 5.60784 13.439C4.84941 13.125 4.16028 12.6646 3.57985 12.0842C2.99942 11.5038 2.53906 10.8147 2.22508 10.0562C1.91111 9.29779 1.74967 8.48492 1.75 7.66406C1.75 6.65531 1.99125 5.70156 2.415 4.85781Z" fill="#101935"/>
</svg>
