<svg width="16" height="16" viewBox="0 0 16 16" fill="none" xmlns="http://www.w3.org/2000/svg">
<path d="M4.8374 3.2892C4.83724 3.62072 4.70538 3.9386 4.47084 4.1729C4.23631 4.4072 3.9183 4.53874 3.58678 4.53857C3.25526 4.53841 2.93738 4.40655 2.70308 4.17202C2.46877 3.93748 2.33724 3.61947 2.3374 3.28795C2.33757 2.95643 2.46942 2.63855 2.70396 2.40425C2.9385 2.16995 3.25651 2.03841 3.58803 2.03857C3.91955 2.03874 4.23742 2.1706 4.47173 2.40513C4.70603 2.63967 4.83757 2.95768 4.8374 3.2892ZM4.8749 5.4642H2.3749V13.2892H4.8749V5.4642ZM8.8249 5.4642H6.3374V13.2892H8.7999V9.18295C8.7999 6.89545 11.7812 6.68295 11.7812 9.18295V13.2892H14.2499V8.33295C14.2499 4.4767 9.8374 4.62045 8.7999 6.5142L8.8249 5.4642Z" fill="#101935"/>
</svg>
